<svg xmlns="http://www.w3.org/2000/svg" xmlns:xlink="http://www.w3.org/1999/xlink" width="260" height="167" viewBox="0 0 260 167"><defs><clipPath id="a"><rect width="260" height="167" transform="translate(0 122)" fill="#fff" stroke="#707070" stroke-width="1"/></clipPath></defs><g transform="translate(0 -122)"><g clip-path="url(#a)"><g transform="translate(18 124)"><g transform="translate(0 0)"><g transform="translate(33.563 146.905)"><path d="M75.09,60.745l-.744-.494L84.424,45.642l.744.495Z" transform="translate(71.035 -45.642)" fill="#333" fill-rule="evenodd"/><path d="M36.934,60.745l-.744-.494L46.267,45.642l.744.495Z" transform="translate(-36.19 -45.642)" fill="#333" fill-rule="evenodd"/><g transform="translate(18.425 3.569)"><path d="M49.538,52.824h.309v3.4h-.309a2.571,2.571,0,0,0-.465-1.025A4.178,4.178,0,0,1,45.8,56.645a4.667,4.667,0,0,1-3.441-1.33,4.748,4.748,0,0,1-1.334-3.524,6.132,6.132,0,0,1,.613-2.709A4.175,4.175,0,0,1,43.358,47.2a4.874,4.874,0,0,1,2.419-.617,4.274,4.274,0,0,1,1.974.45,3.966,3.966,0,0,1,1.322.991,3.611,3.611,0,0,0,.373-1.261h.312l.088,3.681h-.309a4.149,4.149,0,0,0-1.314-2.728,3.56,3.56,0,0,0-2.237-.766,2.846,2.846,0,0,0-2.423,1.238,5.984,5.984,0,0,0-.9,3.547,5.042,5.042,0,0,0,.983,3.345,3.055,3.055,0,0,0,2.438,1.162,3.745,3.745,0,0,0,1.6-.377,2.806,2.806,0,0,0,1.292-1.284A4.855,4.855,0,0,0,49.538,52.824Z" transform="translate(-41.026 -46.579)" fill="#333"/><path d="M52.47,53.313h.343l-.21,3.025H44.564v-.331h.2a1.5,1.5,0,0,0,.934-.191.869.869,0,0,0,.267-.492,11.454,11.454,0,0,0,.057-1.516V49.049a10.569,10.569,0,0,0-.061-1.463.68.68,0,0,0-.278-.491,1.99,1.99,0,0,0-.918-.137v-.332H51.7l.229,2.423h-.339a3.87,3.87,0,0,0-.56-1.448,1.418,1.418,0,0,0-.793-.533,7.05,7.05,0,0,0-1.475-.11H47.422v4.073H48.45a2.845,2.845,0,0,0,.994-.122.648.648,0,0,0,.373-.37,3.459,3.459,0,0,0,.088-.964h.335V52.9h-.335a2.8,2.8,0,0,0-.137-1.082.654.654,0,0,0-.4-.358,3.191,3.191,0,0,0-.884-.084H47.422v2.3a4.96,4.96,0,0,0,.221,2.027c.149.206.545.3,1.2.3h.724a3.407,3.407,0,0,0,1.261-.2A2.21,2.21,0,0,0,51.761,55,4.746,4.746,0,0,0,52.47,53.313Z" transform="translate(-31.084 -46.447)" fill="#333"/><path d="M58.079,56.436H55.466a11.734,11.734,0,0,1-2.126-2.553c-.3-.438-.621-.857-.953-1.261a4.992,4.992,0,0,0-.678-.739,1.029,1.029,0,0,0-.583-.133h-.385v2.157a13.194,13.194,0,0,0,.053,1.5.764.764,0,0,0,.286.526,1.62,1.62,0,0,0,.892.171h.465v.331H47.792V56.1H48.1a1.676,1.676,0,0,0,.865-.156.728.728,0,0,0,.3-.492,11.11,11.11,0,0,0,.065-1.551V49.148a10.645,10.645,0,0,0-.065-1.5.643.643,0,0,0-.29-.461,2.213,2.213,0,0,0-.956-.13h-.168v-.331l1.391-.072c.926-.042,1.661-.061,2.206-.061a8.179,8.179,0,0,1,2.259.255,3.012,3.012,0,0,1,1.406.846,2,2,0,0,1,.537,1.4,2.169,2.169,0,0,1-.7,1.627,3.53,3.53,0,0,1-2.061.838,7.875,7.875,0,0,1,1.962,2.118,9.81,9.81,0,0,0,1.73,1.939,2.607,2.607,0,0,0,1.49.488Zm-7.338-5.014c.358-.011.728-.023,1.109-.046a4.137,4.137,0,0,0,1-.152,1.756,1.756,0,0,0,.682-.377,1.706,1.706,0,0,0,.411-.648,2.878,2.878,0,0,0,.149-.987,2.477,2.477,0,0,0-.511-1.642,2.913,2.913,0,0,0-2.229-.617c-.179,0-.381.011-.61.03Z" transform="translate(-22.013 -46.545)" fill="#333"/><path d="M56.528,56.567h-.442l-3.353-7.719c-.061-.137-.156-.377-.293-.716a2.259,2.259,0,0,0-.587-.926,1.709,1.709,0,0,0-.994-.248v-.332h4.184v.332a3.146,3.146,0,0,0-1.052.114.428.428,0,0,0-.267.434,3.494,3.494,0,0,0,.335.975l2.793,6.443,2.24-5.361a6.28,6.28,0,0,0,.568-1.756c0-.549-.389-.831-1.17-.85v-.332h2.968v.332a1.2,1.2,0,0,0-.8.32,2.513,2.513,0,0,0-.594.9L59.416,49.7Z" transform="translate(-13.397 -46.447)" fill="#333"/><path d="M62.528,53.313h.343l-.21,3.025H54.622v-.331h.2a1.5,1.5,0,0,0,.933-.191.869.869,0,0,0,.267-.492,11.454,11.454,0,0,0,.057-1.516V49.049a10.563,10.563,0,0,0-.061-1.463.68.68,0,0,0-.278-.491,1.99,1.99,0,0,0-.918-.137v-.332h6.938l.229,2.423h-.335a3.929,3.929,0,0,0-.564-1.448,1.406,1.406,0,0,0-.793-.533,7.05,7.05,0,0,0-1.475-.11H57.48v4.073h1.029a2.845,2.845,0,0,0,.994-.122.648.648,0,0,0,.373-.37,3.458,3.458,0,0,0,.088-.964H60.3V52.9h-.335a2.8,2.8,0,0,0-.137-1.082.653.653,0,0,0-.4-.358,3.191,3.191,0,0,0-.884-.084H57.48v2.3A4.961,4.961,0,0,0,57.7,55.7c.149.206.545.3,1.2.3h.724a3.407,3.407,0,0,0,1.261-.2A2.239,2.239,0,0,0,61.823,55,4.818,4.818,0,0,0,62.528,53.313Z" transform="translate(-2.819 -46.447)" fill="#333"/><g transform="translate(64.552)"><path d="M66.484,52.824h.3v3.4h-.3a2.631,2.631,0,0,0-.469-1.025,4.17,4.17,0,0,1-3.269,1.444,4.655,4.655,0,0,1-3.441-1.33,4.751,4.751,0,0,1-1.337-3.524,6.135,6.135,0,0,1,.617-2.709A4.155,4.155,0,0,1,60.3,47.2a4.864,4.864,0,0,1,2.419-.617,4.286,4.286,0,0,1,1.974.45,3.908,3.908,0,0,1,1.318.991,3.533,3.533,0,0,0,.373-1.261H66.7l.084,3.681h-.3a4.184,4.184,0,0,0-1.314-2.728,3.578,3.578,0,0,0-2.24-.766,2.851,2.851,0,0,0-2.423,1.238,5.984,5.984,0,0,0-.9,3.547,5.043,5.043,0,0,0,.983,3.345,3.057,3.057,0,0,0,2.442,1.162,3.742,3.742,0,0,0,1.6-.377,2.772,2.772,0,0,0,1.292-1.284A4.865,4.865,0,0,0,66.484,52.824Z" transform="translate(-57.968 -46.579)" fill="#333"/></g></g><g transform="translate(108.326 0.368)"><path d="M74.912,56.436H72.3a11.513,11.513,0,0,1-2.126-2.553c-.309-.438-.625-.857-.956-1.261a4.784,4.784,0,0,0-.678-.739,1.007,1.007,0,0,0-.579-.133h-.385v2.157a12.317,12.317,0,0,0,.053,1.5.75.75,0,0,0,.286.526,1.6,1.6,0,0,0,.888.171h.469v.331H64.621V56.1h.316a1.659,1.659,0,0,0,.861-.156.715.715,0,0,0,.3-.492,11.11,11.11,0,0,0,.065-1.551V49.148a10.646,10.646,0,0,0-.065-1.5.629.629,0,0,0-.286-.461,2.234,2.234,0,0,0-.96-.13h-.164v-.331l1.387-.072c.926-.042,1.665-.061,2.206-.061a8.179,8.179,0,0,1,2.259.255,3.044,3.044,0,0,1,1.41.846,2,2,0,0,1,.533,1.4,2.179,2.179,0,0,1-.7,1.627,3.553,3.553,0,0,1-2.065.838,7.813,7.813,0,0,1,1.962,2.118,9.8,9.8,0,0,0,1.734,1.939,2.6,2.6,0,0,0,1.49.488Zm-7.338-5.014c.354-.011.728-.023,1.109-.046a4.073,4.073,0,0,0,.994-.152,1.745,1.745,0,0,0,.686-.377,1.7,1.7,0,0,0,.408-.648,2.783,2.783,0,0,0,.152-.987,2.478,2.478,0,0,0-.514-1.642,2.9,2.9,0,0,0-2.229-.617c-.175,0-.381.011-.606.03Z" transform="translate(-64.621 -43.345)" fill="#333"/><path d="M68.172,49.45v-.331h4.439v.331h-.206a2.317,2.317,0,0,0-.937.118.6.6,0,0,0-.3.438,8.746,8.746,0,0,0-.076,1.535V56.3a13.2,13.2,0,0,0,.053,1.5.75.75,0,0,0,.286.526,1.62,1.62,0,0,0,.892.171h.286v.331H68.172V58.5h.286a1.685,1.685,0,0,0,.865-.156.711.711,0,0,0,.3-.492,10.509,10.509,0,0,0,.065-1.551V51.542a10.061,10.061,0,0,0-.065-1.5.629.629,0,0,0-.286-.461,2.222,2.222,0,0,0-.96-.13Zm1.574-1.177h-.236l1.074-1.665a3.887,3.887,0,0,1,.522-.693.619.619,0,0,1,.427-.175.411.411,0,0,1,.32.126.391.391,0,0,1,.114.271.558.558,0,0,1-.156.37,11.141,11.141,0,0,1-.975.869Z" transform="translate(-54.642 -45.739)" fill="#333"/><path d="M76.5,52.855H72.816l-.248.617A6.29,6.29,0,0,0,72,55.217a.784.784,0,0,0,.3.663,1.208,1.208,0,0,0,.762.225v.331H70.179V56.1a1.542,1.542,0,0,0,.96-.453,5.528,5.528,0,0,0,.758-1.494c.027-.072.141-.347.347-.831l2.82-6.736h.278L78.588,54.3l.442,1.021a1.371,1.371,0,0,0,.4.537,1.453,1.453,0,0,0,.766.248v.331H76.382V56.1a2.863,2.863,0,0,0,.949-.1.406.406,0,0,0,.248-.412,4.087,4.087,0,0,0-.331-.937Zm-.122-.324-1.718-4.138-1.711,4.138Z" transform="translate(-49.002 -43.345)" fill="#333"/></g><path d="M65.307,50.955a3.192,3.192,0,0,0-.625-.065,3.459,3.459,0,0,0-2.339.739,2.351,2.351,0,0,0-.854,1.856,2.58,2.58,0,0,0,1.261,2.2A5.654,5.654,0,0,0,66,56.548a5.444,5.444,0,0,0,2.29-.442c.64-.293.96-.61.96-.945a.455.455,0,0,0-.183-.366.716.716,0,0,0-.472-.149.763.763,0,0,0-.747.518,1.439,1.439,0,0,1-.808.861,2.808,2.808,0,0,1-1.021.2,3.076,3.076,0,0,1-2.065-.674,2.607,2.607,0,0,1-.792-2.1,2.23,2.23,0,0,1,.591-1.7,1.964,1.964,0,0,1,1.4-.56,2.671,2.671,0,0,1,1.535.617.477.477,0,0,0,.293.111c.2,0,.3-.08.3-.236,0-.069-.05-.141-.156-.217A8.2,8.2,0,0,0,66.244,51a8.693,8.693,0,0,1-2.111-1.307,1.807,1.807,0,0,1-.514-1.318,1.4,1.4,0,0,1,.537-1.17,2.244,2.244,0,0,1,1.421-.415,3.065,3.065,0,0,1,1.612.423,1.237,1.237,0,0,1,.7,1.074,1.259,1.259,0,0,1-.613.979c-.05.034-.072.061-.072.088,0,.065.111.133.335.206a1.79,1.79,0,0,0,.484.11.758.758,0,0,0,.587-.347,1.193,1.193,0,0,0,.271-.747,1.841,1.841,0,0,0-.968-1.478,4.53,4.53,0,0,0-2.595-.663,4.671,4.671,0,0,0-2.522.556,1.535,1.535,0,0,0-.853,1.238,1.5,1.5,0,0,0,.583,1.12,8.977,8.977,0,0,0,1.962,1.193Z" transform="translate(34.904 -43.412)" fill="#333" fill-rule="evenodd"/></g><path d="M79.213,74.758c-13.324-4.53-20.068-10.185-17.919-30.081C63,28.849,68.255,16.611,81.507,17.106,97.224,17.7,97.65,30.564,98.344,46.452c.762,17.435-6.4,32.63-19.131,28.306M82.341,7.95C60.688,2.6,41.485,22.875,43.718,46.147c2.035,21.211,16.155,43.805,37.919,38.921,21.245-4.77,36.261-17.035,38.277-38.242C122.443,20.162,105,13.548,82.341,7.95" transform="translate(18.029 -7.086)" fill="#333" fill-rule="evenodd"/><path d="M104.715,17.588c14.025,2.492,22.08,8.26,19.923,28.172-1.718,15.839-9.263,26.9-21.992,27.121-21.272.373-15.972-12.741-16.666-28.645C85.219,26.79,91.258,15.2,104.715,17.588M102.189,83.2c21.634,5.346,40.822-14.909,38.589-38.159-2.035-21.188-15.869-39.386-39.191-37.652C79.755,9,67.063,19.966,65.051,41.154c-2.526,26.637,14.5,36.452,37.138,42.041" transform="translate(77.779 -6.57)" fill="#333" fill-rule="evenodd"/><path d="M77.628,78.742s-6.344-64.22,1.44-69.531c1.65-1.128-15.595-5.323-22.914,2.572C48.534,20,41.87,38.186,28.9,48.882c9.339,6.462,26.13-1.863,30.39-16.967l-.171,3.216c-.061.758-.111,1.448-.1,1.814v.008l-2.195,41.6s-11.061,2-14.658,6.6c.248.179,4.572,2.8,19.31.023,15.968-3.006,25.235-.8,25.517.819-1.059-6.115-9.369-7.247-9.369-7.247" transform="translate(-23.113 -7.085)" fill="#333" fill-rule="evenodd"/><path d="M53.23,49.622c-.831,1.676-2,4.332-4.847,4.294-4.286-.061-6.915-3.776-7.266-9.967a8.435,8.435,0,0,1,6.55-9.182c2.358-.64,3.94.617,5.052,3.185a3.217,3.217,0,0,0-2.995-.77,2.632,2.632,0,0,0-2.191,1.657,2.382,2.382,0,0,0,1.2,2.751c.678.286,1.539.29,1.844-.408.248-.564.191-1.455-1.044-1.395-1.7-.034-1-1.082-.492-1.238a2.172,2.172,0,0,1,1.741.008,4.694,4.694,0,0,1,2.046,2.21c1.337,2.732,1.753,6.127.4,8.855M47.854,31.855c-6.607-1.722-12.471,4.82-11.792,12.322.617,6.839,4.923,14.124,11.564,12.547,6.481-1.543,11.068-5.5,11.686-12.341.777-8.6-4.546-10.726-11.457-12.528" transform="translate(-3.139 61.737)" fill="#333" fill-rule="evenodd"/><path d="M89.365,44.129c-.48,4.618-3.071,7.232-6.645,8.18-3.658.972-5.33-4-5.521-8.638-.213-5.09,2.153-8.626,6.172-8.192,3.947.427,6.6,2.839,5.993,8.649m3.974-.351C92.775,37.568,88.854,30.95,82.8,32.387c-5.906,1.4-10.078,5-10.642,11.206C71.453,51.4,76.3,53.335,82.6,54.973c6.016,1.562,11.358-4.378,10.741-11.194" transform="translate(98.265 63.453)" fill="#333" fill-rule="evenodd"/><path d="M62.11,53.672a6.916,6.916,0,0,0-1.555-.293l-.023-.065c-.453-4.134-.865-8.272-1.3-12.406-.187-1.806-.408-3.6-.61-5.384,1.341-.37,2.137.084,2.621,1.509.351,1.04.514,2.145.926,3.155.453,1.109,1.033,2.233,2.435,2.412a.639.639,0,0,0,.7-.873q-1.069-3.783-2.164-7.552c-.392-1.356-.823-1.5-2.149-.975a7.261,7.261,0,0,1-2.332.293c-1.063.046-2.122-.179-3.185-.152a6.334,6.334,0,0,1-3.723-1.177,6.71,6.71,0,0,0-1.143-.465,24.784,24.784,0,0,0-.267,3.235,11.239,11.239,0,0,1-2.309,6.744c-.286.492.591.956,1.094.7a6.3,6.3,0,0,0,2.85-2.656c.423-1.1.518-1.76.949-2.858.3-.785.556-1.44,1.425-1.711.914-.286,1.128-.126,1.071.834-.011.274-.057.549-.088.823-.392,3.723-.846,7.445-1.154,11.175-.16,1.939-.206,3.322-.225,5.319a3.626,3.626,0,0,0-3.082,1.707c.187.03,1.928.838,6.374.133a15.867,15.867,0,0,1,6.473.061,2.877,2.877,0,0,0-1.608-1.535" transform="translate(30.491 62.08)" fill="#333" fill-rule="evenodd"/><path d="M70.292,45.384c-1.383-.9-4.279-1.913-5.479.728-.019.042-.084.03-.072-.015.575-2.389,1.261-6.134,2.408-7.929.594-.926,1.589-2.233,2.831-2.5.164,1.566.389,3.974.545,5.487.13,1.25.255,2.5.392,3.818.015.175.072,1.135.072,1.135a2.483,2.483,0,0,0-.7-.724m-5.22-9.266c-2.583,1.734-3.513-1.756-.678-2.244a2.625,2.625,0,0,1,2.663.949c-.461.286-1.593,1.048-1.985,1.3m13.454,12.41c.732,1.257-.24,2.564-2.248,1.612a3.7,3.7,0,0,1-1.8-2.633c-.625-4.145-1.109-8.672-1.341-10.752-.149-1.326-.309-2.656-.476-4.073-1.292.724-2.431.175-3.57-.042a17.432,17.432,0,0,0-5.616-.629,3.164,3.164,0,0,0-2.713,4.225c.446,1.242,1.455,1.547,2.656,1.654-.373.652-.735,1.238-1.052,1.844a34.535,34.535,0,0,0-3.04,10.146c-.907,4.953-2.766,7.514-5.78,8.2a3.14,3.14,0,0,1-2.065-.389c-.133-.1-.21-.042-.137.126.5,1.12,2.465,2.48,5.327,1.448,5.727-2.141,7.315-10.291,7.7-11.225a2.341,2.341,0,0,0,3.151,2.2,1.683,1.683,0,0,0,.907-2.37,1.665,1.665,0,0,0-2.583-.4c-.373-1.3.488-1.749,1.623-1.65a5.163,5.163,0,0,1,4.084,4.389c.076.853.362,3.441.5,4.286a3.769,3.769,0,0,0-2.374,2.2,6.578,6.578,0,0,1,3.555-.434,8.073,8.073,0,0,0,2.861-.11.4.4,0,0,0,.259-.583,15.147,15.147,0,0,1-1.139-3.837c1.7.735,5.132-.271,4.5-2.953-.362-1.539-2.046-1.73-1.185-.251" transform="translate(39.881 62.766)" fill="#333" fill-rule="evenodd"/><path d="M75.482,33.514a2.08,2.08,0,0,0,.575-1.04,28.821,28.821,0,0,0-5.807.133,12.181,12.181,0,0,1-5.277-.236s-.149,1.246,2.545,2.016a9.982,9.982,0,0,1,.217,2.343c.019.831.034.03.038.861.046,10.962-.152,12.253-.175,14.673-3.574.507-3.768,2.259-3.768,2.259s.93.5,6.714-.133c5.071-.549,6.71.069,6.71.069s-.564-1.543-3.726-2.278l-.008-.145c-.351-4.271-.434-8.954-.564-12.612-.046-1.3-.183-4.454-.069-4.759a4.344,4.344,0,0,0,2.595-1.151" transform="translate(75.048 63.968)" fill="#333" fill-rule="evenodd"/><path d="M56.737,56.6a110.933,110.933,0,0,0,1.429-15.107v-.008s.183-5.757-3.883-9.186c-.56.11-1.516,2.686-2.073,4.412a17.871,17.871,0,0,1-3.825,6.626,23.933,23.933,0,0,0-3.7-5.643C41.95,34.606,38.929,34.918,37,31.211c-.042-.008-.861,2.88,1.414,7.651,1.726,3.623,2.073,16.7-5.052,20.068-1.566.739-3.81-.5-2.324-1.471s-.309-4.26-2.309-3.524-1.189,3.349-1.189,3.349c2.812,6.957,13.069,3.3,15.229-4.069.964-3.292,1.642-5.49,1.337-12.916,1.395,2.077,3.719,7.75,2.275,13.145,4.34-2.941,6.115-7.655,7.338-12.554l-.05,1.044c-.019.244-.034.469-.03.587v0L52.9,58.2a20.381,20.381,0,0,1,3.684.328c3.905.724,3.86-.225,4.13-.229-.987-1.669-3.974-1.7-3.974-1.7" transform="translate(-27.381 60.708)" fill="#333" fill-rule="evenodd"/><path d="M74.353,49.222A6.085,6.085,0,0,1,68.184,53.8l.171-18.609c7.906.712,7.285,10.055,6,14.033m5.014-8.6c-1.726-6.641-8.577-9.83-17.1-8.706a7.055,7.055,0,0,0-2.957,1.04c-1.829,1.265-1.707,4.435.091,5.372a2.723,2.723,0,0,0,2.934-.465,1.961,1.961,0,0,0-.107-2.4,1.4,1.4,0,0,1-1.863,1.6A1.128,1.128,0,0,1,59.707,36c-.1-1.7,2.339-1.5,4.283-1.185l-.175,19.035c-1.917.6-2.633,1.28-2.587,2.511a3.849,3.849,0,0,1,3.658-.987c.457.057.922.088,1.383.126l-.027.011s.271.027.724.05l.1,0c.381.019.876.038,1.44.038.21,0,.419.015.632.015a11.864,11.864,0,0,0,1.33-.084c2.008-.145,4.26-.564,5.616-1.627,2.9-2.271,5-6.645,3.281-13.286" transform="translate(58.658 62.079)" fill="#333" fill-rule="evenodd"/><path d="M96.822,46.976c-1.425-3.966-8.123-4.5-10.657-6.923a4,4,0,0,1-1.322-3.2c.24-5.239,9.16-3.124,8.6.335-.632,3.883-4.873,3.292-4.469,1.977.739-2.4-1.113-2.016-1.116-.941,0,.453.686,3.159,4.088,2.808,2.793-.286,4.077-1.749,4.4-3.707.461-2.755-4.046-5.574-7.94-5.506-2.877.05-10.733.56-10.078,8.207.358,4.153,3.9,4.968,8.085,6.744,2.317.983,5.471,1.4,5.7,3.311.271,2.217-.065,3.056-1.5,3.719-4.039,1.863-9.091.484-10.219-1.863a1.729,1.729,0,0,1,.423-2.3,1.7,1.7,0,0,0,.236,1.227,1.447,1.447,0,0,0,2.08.278,1.8,1.8,0,0,0,.187-2.252,2.213,2.213,0,0,0-3.2-.053,4.1,4.1,0,0,0-1.162,4.187c.568,2.134,4.275,3.376,5.635,3.517a23.277,23.277,0,0,0,3.174.164c2.027-.076,7.978.088,9.388-5.791a8.221,8.221,0,0,0-.331-3.944" transform="translate(115.677 62.424)" fill="#333" fill-rule="evenodd"/><path d="M81.177,40.318C82.957,43.8,84.934,42.8,84.934,42.8a31.8,31.8,0,0,1-2.473-5.3,8.873,8.873,0,0,1-.267-.975l-.011-.05a9.981,9.981,0,0,1-.076-3.486.39.39,0,0,0-.518-.431,16.255,16.255,0,0,1-5.723.781c-4.565-.042-6.081-1.52-6.081-1.52L69.709,32a23.926,23.926,0,0,0-.267,3.261,11.387,11.387,0,0,1-2.317,6.8c-.286.492,3.768.411,4.9-4.858a2.062,2.062,0,0,1,1.421-1.722.77.77,0,0,1,1.082.838c-.015.278-.057.552-.091.831-.392,3.757-.678,5.57-.987,9.331-.16,1.958-.37,5.86-.385,7.876a8.058,8.058,0,0,0-3.182,2.164s2.225,1.2,7.361.377c2.88-.461,5.208-.594,5.208-.594a3.971,3.971,0,0,0-1.707-1.5,4.444,4.444,0,0,0-1.661-.347c-.457-4.184-.3-8.984-.739-13.179-.187-1.817-.408-3.631-.61-5.429,2.545-1.006,2.781,3.185,3.437,4.465" transform="translate(84.266 62.422)" fill="#333" fill-rule="evenodd"/><path d="M68.914,30.216c-2.656-.5-9.7,3.014-10.31,21.573-2.5-4.237-2.553-9.685-5.136-14.97-.328-.667-7.209-1.608-7.632-1.581a.545.545,0,0,0-.217,1.033,2.56,2.56,0,0,1,1.7,2.423c-.114,3.361.171,14.341-1.185,18.875-.389,1.3-1.318,2.3-2.389,1.8a1.671,1.671,0,0,0,.9-.831,1.437,1.437,0,0,0-.842-1.894,1.744,1.744,0,0,0-1.97,1.006,2.189,2.189,0,0,0,1.6,2.713c2.652.522,6.157-2.461,5.921-14.955-.015-.747.015-1.494.019-2.237s.015-1.49.023-2.229c.187.2,1.8,7.666,3.326,10.962,1.143,2.469,2,4.126,4.145,5.868,2.278,1.856,4.77,2.038,8.481.24l-.046,0h-.023a12.886,12.886,0,0,1-2.968-7.079c-.853-7.872,1.227-13.865,3.261-17.218.827-1.368,1.76-2.663,3.044-2.5a1.652,1.652,0,0,0-.892.838,1.439,1.439,0,0,0,.861,1.886,1.748,1.748,0,0,0,1.962-1.025,2.194,2.194,0,0,0-1.635-2.7" transform="translate(12.908 57.79)" fill="#333" fill-rule="evenodd"/><path d="M86.016,32.779l-.343,0-.008.93h.343c.312,0,.579-.133.583-.457S86.332,32.779,86.016,32.779Zm.48,2.781L85.654,34.2h-.046L85.6,35.552l-.625-.008L85,32.31l1.017.008a.986.986,0,0,1,1.055.956.941.941,0,0,1-.751.892l.96,1.4Z" transform="translate(134.457 63.797)" fill="#333" fill-rule="evenodd"/><path d="M88.884,32.876a2.49,2.49,0,0,0-3.5,3.452,1.618,1.618,0,0,0,.488.5,2.492,2.492,0,0,0,3.5-3.456,1.6,1.6,0,0,0-.488-.5m.042,4.477a2.948,2.948,0,0,1-4-4.1,2.3,2.3,0,0,1,.907-.9,2.949,2.949,0,0,1,4.008,4.1,2.263,2.263,0,0,1-.911.9" transform="translate(133.091 62.766)" fill="#333" fill-rule="evenodd"/></g></g></g></g></svg>