<svg xmlns="http://www.w3.org/2000/svg" xmlns:xlink="http://www.w3.org/1999/xlink" width="114" height="63" viewBox="0 0 114 63"><defs><clipPath id="a"><rect width="114" height="63" transform="translate(903 29)" fill="#fff"/></clipPath></defs><g transform="translate(-903 -29)" clip-path="url(#a)"><g transform="translate(915 20.914)"><g transform="translate(0 7.086)"><g transform="translate(-12 1)"><path d="M61.714,41.562c-6.788-2.308-10.224-5.189-9.129-15.325.872-8.063,3.546-14.3,10.3-14.046,8.007.3,8.224,6.856,8.578,14.95.388,8.883-3.259,16.624-9.746,14.42M63.308,7.526C52.276,4.8,42.493,15.13,43.631,26.986c1.037,10.806,8.23,22.317,19.318,19.828,10.824-2.43,18.474-8.679,19.5-19.483,1.289-13.584-7.6-16.954-19.141-19.805" transform="translate(-12.174 -7.086)" fill="#333" fill-rule="evenodd"/><path d="M85.136,12.527c7.145,1.269,11.249,4.208,10.15,14.353-.875,8.069-4.719,13.7-11.2,13.817-10.837.19-8.137-6.491-8.49-14.593-.388-8.888,2.688-14.8,9.544-13.576M83.849,45.951c11.022,2.723,20.8-7.6,19.66-19.44C102.472,15.716,95.424,6.445,83.543,7.328c-11.123.825-17.588,6.41-18.613,17.2C63.642,38.1,72.317,43.1,83.849,45.951" transform="translate(7.836 -6.913)" fill="#333" fill-rule="evenodd"/><path d="M53.725,43.592s-3.232-32.717.734-35.423c.84-.575-7.945-2.712-11.674,1.31C38.9,13.668,35.508,22.931,28.9,28.379c4.758,3.292,13.312-.949,15.482-8.644l-.087,1.638c-.031.386-.056.738-.049.924v0L43.128,43.493s-5.635,1.021-7.467,3.362c.126.091,2.329,1.425,9.838.012,8.135-1.532,12.856-.41,13,.417-.54-3.115-4.773-3.692-4.773-3.692" transform="translate(-25.952 -7.086)" fill="#333" fill-rule="evenodd"/><path d="M44.782,40.77c-.423.854-1.021,2.207-2.469,2.188-2.184-.031-3.523-1.924-3.7-5.078A4.3,4.3,0,0,1,41.948,33.2c1.2-.326,2.007.314,2.574,1.623A1.639,1.639,0,0,0,43,34.432a1.341,1.341,0,0,0-1.116.844,1.214,1.214,0,0,0,.611,1.4c.346.146.784.148.939-.208.126-.287.1-.742-.532-.71-.868-.017-.511-.551-.25-.631a1.107,1.107,0,0,1,.887,0,2.391,2.391,0,0,1,1.042,1.126,5.222,5.222,0,0,1,.2,4.511m-2.739-9.051c-3.366-.877-6.353,2.455-6.008,6.278.314,3.484,2.508,7.2,5.891,6.392,3.3-.786,5.639-2.8,5.953-6.287.4-4.379-2.316-5.464-5.837-6.382" transform="translate(-19.263 15.962)" fill="#333" fill-rule="evenodd"/><path d="M80.892,38.272a4.438,4.438,0,0,1-3.385,4.168c-1.863.495-2.716-2.038-2.813-4.4-.109-2.593,1.1-4.395,3.145-4.173,2.011.217,3.362,1.446,3.053,4.406m2.025-.179c-.287-3.164-2.285-6.536-5.367-5.8C74.541,33,72.415,34.834,72.128,38c-.361,3.979,2.108,4.963,5.317,5.8,3.065.8,5.786-2.23,5.472-5.7" transform="translate(14.697 16.537)" fill="#333" fill-rule="evenodd"/><path d="M55.176,42.893a3.523,3.523,0,0,0-.792-.149l-.012-.033c-.231-2.106-.441-4.214-.662-6.32-.1-.92-.208-1.836-.311-2.743.683-.188,1.089.043,1.335.769.179.53.262,1.093.472,1.607.231.565.526,1.137,1.24,1.229a.326.326,0,0,0,.355-.445q-.544-1.928-1.1-3.847c-.2-.691-.419-.763-1.095-.5a3.7,3.7,0,0,1-1.188.149c-.542.023-1.081-.091-1.623-.078a3.227,3.227,0,0,1-1.9-.6,3.419,3.419,0,0,0-.582-.237,12.627,12.627,0,0,0-.136,1.648A5.726,5.726,0,0,1,48,36.783c-.146.25.3.487.557.357a3.21,3.21,0,0,0,1.452-1.353c.215-.561.264-.9.483-1.456.153-.4.283-.734.726-.872.466-.146.575-.064.545.425-.006.14-.029.28-.045.419-.2,1.9-.431,3.793-.588,5.693-.082.988-.1,1.693-.115,2.71a1.847,1.847,0,0,0-1.57.87,6.418,6.418,0,0,0,3.247.068,8.084,8.084,0,0,1,3.3.031,1.466,1.466,0,0,0-.819-.782" transform="translate(-8 16.077)" fill="#333" fill-rule="evenodd"/><path d="M60.984,38.791c-.7-.456-2.18-.974-2.791.371-.01.021-.043.016-.037-.008a16.253,16.253,0,0,1,1.227-4.039,2.712,2.712,0,0,1,1.442-1.273c.083.8.2,2.025.278,2.8.066.637.13,1.271.2,1.945.008.089.037.578.037.578a1.266,1.266,0,0,0-.355-.369M58.325,34.07c-1.316.883-1.79-.895-.346-1.143a1.337,1.337,0,0,1,1.357.483c-.235.146-.811.534-1.011.66m6.854,6.322c.373.641-.122,1.306-1.145.821a1.884,1.884,0,0,1-.916-1.341c-.318-2.112-.565-4.418-.683-5.478-.076-.675-.157-1.353-.243-2.075-.658.369-1.238.089-1.819-.021a8.881,8.881,0,0,0-2.861-.32,1.612,1.612,0,0,0-1.382,2.153,1.35,1.35,0,0,0,1.353.842c-.19.332-.375.631-.536.939A17.594,17.594,0,0,0,55.4,41.081c-.462,2.523-1.409,3.828-2.945,4.179a1.6,1.6,0,0,1-1.052-.2c-.068-.052-.107-.021-.07.064a2.1,2.1,0,0,0,2.714.738c2.917-1.091,3.727-5.243,3.921-5.719a1.192,1.192,0,0,0,1.605,1.122.858.858,0,0,0,.462-1.207.848.848,0,0,0-1.316-.206c-.19-.662.248-.891.827-.841a2.63,2.63,0,0,1,2.081,2.236c.039.435.184,1.753.252,2.184a1.92,1.92,0,0,0-1.209,1.12,3.351,3.351,0,0,1,1.811-.221,4.113,4.113,0,0,0,1.458-.056.2.2,0,0,0,.132-.3,7.716,7.716,0,0,1-.58-1.955c.864.375,2.615-.138,2.294-1.5-.184-.784-1.042-.881-.6-.128" transform="translate(-4.855 16.307)" fill="#333" fill-rule="evenodd"/><path d="M69.767,32.953a1.059,1.059,0,0,0,.293-.53,14.683,14.683,0,0,0-2.958.068,6.206,6.206,0,0,1-2.688-.12s-.076.635,1.3,1.027a5.084,5.084,0,0,1,.111,1.194c.01.423.017.016.019.439.023,5.585-.078,6.243-.089,7.475-1.821.258-1.92,1.151-1.92,1.151s.474.252,3.42-.068a8.762,8.762,0,0,1,3.418.035s-.287-.786-1.9-1.161l0-.074c-.179-2.176-.221-4.562-.287-6.425-.023-.662-.093-2.269-.035-2.424a2.213,2.213,0,0,0,1.322-.586" transform="translate(6.922 16.71)" fill="#333" fill-rule="evenodd"/><path d="M42.337,44.145a56.516,56.516,0,0,0,.728-7.7v0a6.413,6.413,0,0,0-1.978-4.68c-.285.056-.773,1.368-1.056,2.248a9.1,9.1,0,0,1-1.949,3.376A12.192,12.192,0,0,0,36.2,34.513c-1.4-1.572-2.935-1.413-3.915-3.3-.021,0-.439,1.467.72,3.9.879,1.846,1.056,8.508-2.574,10.224-.8.377-1.941-.254-1.184-.749s-.157-2.17-1.176-1.8-.606,1.706-.606,1.706c1.433,3.544,6.658,1.679,7.759-2.073a16.248,16.248,0,0,0,.681-6.58,9.1,9.1,0,0,1,1.159,6.7c2.211-1.5,3.115-3.9,3.739-6.4l-.025.532c-.01.124-.017.239-.016.3v0l-.38,7.986a10.383,10.383,0,0,1,1.877.167c1.99.369,1.966-.115,2.1-.116-.5-.85-2.025-.866-2.025-.866" transform="translate(-27.381 15.618)" fill="#333" fill-rule="evenodd"/><path d="M66.331,40.626a3.1,3.1,0,0,1-3.143,2.331l.087-9.48c4.028.363,3.711,5.123,3.055,7.149m2.554-4.379c-.879-3.383-4.369-5.008-8.71-4.435a3.594,3.594,0,0,0-1.506.53,1.7,1.7,0,0,0,.047,2.737,1.387,1.387,0,0,0,1.495-.237,1,1,0,0,0-.054-1.225.713.713,0,0,1-.949.813.575.575,0,0,1-.338-.538c-.052-.866,1.192-.763,2.182-.6l-.089,9.7c-.976.307-1.341.652-1.318,1.279a1.961,1.961,0,0,1,1.863-.5c.233.029.47.045.7.064l-.014.006s.138.014.369.025l.052,0c.194.01.446.019.734.019.107,0,.214.008.322.008a6.044,6.044,0,0,0,.677-.043,5.55,5.55,0,0,0,2.861-.829c1.477-1.157,2.549-3.385,1.671-6.769" transform="translate(1.433 16.077)" fill="#333" fill-rule="evenodd"/><path d="M87.731,39.542C87,37.521,83.592,37.25,82.3,36.015a2.039,2.039,0,0,1-.674-1.629c.122-2.669,4.666-1.592,4.379.171-.322,1.978-2.483,1.677-2.277,1.007.377-1.225-.567-1.027-.569-.479a1.716,1.716,0,0,0,2.083,1.431,2.221,2.221,0,0,0,2.244-1.889c.235-1.4-2.061-2.84-4.045-2.8-1.466.025-5.468.285-5.134,4.181.182,2.116,1.988,2.531,4.119,3.436,1.18.5,2.787.714,2.9,1.687.138,1.13-.033,1.557-.767,1.895-2.058.949-4.631.247-5.206-.949a.881.881,0,0,1,.215-1.17.863.863,0,0,0,.12.625.737.737,0,0,0,1.06.142.915.915,0,0,0,.1-1.147,1.127,1.127,0,0,0-1.629-.027,2.086,2.086,0,0,0-.592,2.133c.289,1.087,2.178,1.72,2.871,1.792a11.859,11.859,0,0,0,1.617.083c1.033-.039,4.065.045,4.783-2.95a4.188,4.188,0,0,0-.169-2.009" transform="translate(20.528 16.193)" fill="#333" fill-rule="evenodd"/><path d="M74.277,36.15c.907,1.776,1.914,1.266,1.914,1.266a16.2,16.2,0,0,1-1.26-2.7,4.527,4.527,0,0,1-.136-.5l-.006-.025a5.085,5.085,0,0,1-.039-1.776.2.2,0,0,0-.264-.219,8.281,8.281,0,0,1-2.916.4c-2.325-.021-3.1-.774-3.1-.774l-.039.089a12.2,12.2,0,0,0-.136,1.662,5.8,5.8,0,0,1-1.18,3.467c-.146.25,1.92.21,2.5-2.475a1.05,1.05,0,0,1,.724-.877.392.392,0,0,1,.551.427c-.008.142-.029.281-.047.423-.2,1.914-.346,2.838-.5,4.754-.082,1-.188,2.985-.2,4.012a4.105,4.105,0,0,0-1.621,1.1,6.425,6.425,0,0,0,3.75.192c1.468-.235,2.654-.3,2.654-.3a2.023,2.023,0,0,0-.87-.763,2.264,2.264,0,0,0-.846-.177c-.233-2.131-.153-4.577-.377-6.714-.1-.926-.208-1.85-.311-2.766,1.3-.512,1.417,1.623,1.751,2.275" transform="translate(10.009 16.192)" fill="#333" fill-rule="evenodd"/><path d="M55.573,30.195c-1.353-.252-4.942,1.535-5.253,10.991-1.271-2.159-1.3-4.934-2.617-7.627-.167-.34-3.673-.819-3.888-.806a.278.278,0,0,0-.111.526,1.3,1.3,0,0,1,.864,1.235c-.058,1.712.087,7.306-.6,9.616-.2.664-.672,1.17-1.217.918a.851.851,0,0,0,.458-.423.732.732,0,0,0-.429-.965.888.888,0,0,0-1,.512,1.115,1.115,0,0,0,.817,1.382c1.351.266,3.137-1.254,3.016-7.619-.008-.38.008-.761.01-1.139s.008-.759.012-1.136a55.66,55.66,0,0,0,1.695,5.585,7.214,7.214,0,0,0,2.112,2.989c1.161.945,2.43,1.038,4.321.122l-.023,0h-.012a6.565,6.565,0,0,1-1.512-3.607,14.152,14.152,0,0,1,1.662-8.772c.421-.7.9-1.357,1.551-1.273a.842.842,0,0,0-.454.427.733.733,0,0,0,.439.961.891.891,0,0,0,1-.522,1.118,1.118,0,0,0-.833-1.374" transform="translate(-13.889 14.641)" fill="#333" fill-rule="evenodd"/><path d="M85.5,32.549l-.175,0,0,.474H85.5c.159,0,.3-.068.3-.233S85.665,32.549,85.5,32.549Zm.245,1.417-.429-.691H85.3l-.006.687-.318,0,.016-1.648.518,0a.5.5,0,0,1,.538.487.48.48,0,0,1-.382.454l.489.714Z" transform="translate(26.818 16.652)" fill="#333" fill-rule="evenodd"/><path d="M86.726,32.418a1.269,1.269,0,0,0-1.782,1.759.824.824,0,0,0,.248.256,1.269,1.269,0,0,0,1.782-1.761.817.817,0,0,0-.248-.254m.021,2.281a1.5,1.5,0,0,1-2.04-2.091,1.173,1.173,0,0,1,.462-.456,1.5,1.5,0,0,1,2.042,2.091,1.153,1.153,0,0,1-.464.456" transform="translate(26.36 16.307)" fill="#333" fill-rule="evenodd"/></g></g></g></g></svg>